<svg
 xmlns="http://www.w3.org/2000/svg"
 xmlns:xlink="http://www.w3.org/1999/xlink"
 width="26px" height="17px" viewBox="0 0 26 17">
<path fill-rule="evenodd"
 d="M17.086,2.062 L23.304,2.062 L23.304,3.650 L17.086,3.650 L17.086,2.062 ZM25.663,11.468 L17.567,11.468 C17.654,13.432 18.608,14.156 20.322,14.156 C21.560,14.156 22.560,13.760 22.755,13.061 L25.223,13.061 C24.356,15.723 22.755,16.489 20.215,16.489 C16.677,16.489 14.485,14.046 14.485,10.557 C14.485,7.175 16.808,4.601 20.215,4.601 C24.034,4.601 25.879,8.000 25.663,11.468 ZM17.567,9.162 L22.581,9.162 C22.299,7.592 21.625,6.936 20.127,6.936 C18.174,6.936 17.610,8.291 17.567,9.162 ZM13.676,11.667 C13.676,14.831 11.005,16.185 8.205,16.185 L0.696,16.185 L0.696,0.510 L7.990,0.510 C10.941,0.510 12.938,1.568 12.938,4.469 C12.938,5.998 12.178,7.065 10.831,7.721 C12.721,8.266 13.676,9.727 13.676,11.667 ZM7.002,3.147 L3.812,3.147 L3.812,6.789 L7.262,6.789 C8.455,6.789 9.346,6.244 9.346,4.937 C9.346,3.453 8.217,3.147 7.002,3.147 ZM7.522,9.123 L3.812,9.123 L3.812,13.399 L7.457,13.399 C8.803,13.399 9.974,12.964 9.974,11.349 C9.974,9.757 8.977,9.123 7.522,9.123 Z"/>
</svg>