<svg
 xmlns="http://www.w3.org/2000/svg"
 xmlns:xlink="http://www.w3.org/1999/xlink"
 width="40px" height="30px" viewBox="0 0 40 30">
<path fill-rule="evenodd"  fill="currentColor"
 d="M38.678,16.289 L38.679,16.291 L31.479,23.491 L31.478,23.489 C31.153,23.804 30.713,24.000 30.225,24.000 C29.231,24.000 28.425,23.194 28.425,22.200 C28.425,21.712 28.621,21.271 28.936,20.948 L28.934,20.946 L34.870,15.009 L28.952,9.091 L28.954,9.090 C28.617,8.763 28.406,8.306 28.406,7.800 C28.406,6.805 29.212,6.000 30.206,6.000 C30.713,6.000 31.169,6.211 31.496,6.548 L31.498,6.545 L38.593,13.641 C38.977,13.971 39.225,14.454 39.225,15.000 C39.225,15.506 39.014,15.962 38.678,16.289 ZM16.900,28.210 C16.650,28.904 15.986,29.400 15.206,29.400 C14.212,29.400 13.406,28.594 13.406,27.600 C13.406,27.372 13.449,27.155 13.526,26.954 L23.113,1.789 C23.363,1.096 24.026,0.600 24.806,0.600 C25.800,0.600 26.606,1.406 26.606,2.400 C26.606,2.627 26.564,2.845 26.486,3.046 L16.900,28.210 ZM11.079,9.091 L5.161,15.009 L11.098,20.946 L11.096,20.948 C11.411,21.271 11.606,21.712 11.606,22.200 C11.606,23.194 10.800,24.000 9.806,24.000 C9.319,24.000 8.878,23.804 8.554,23.489 L8.552,23.491 L1.352,16.291 L1.354,16.289 C1.017,15.962 0.806,15.506 0.806,15.000 C0.806,14.454 1.054,13.971 1.438,13.641 L8.533,6.545 L8.535,6.548 C8.862,6.211 9.318,6.000 9.825,6.000 C10.819,6.000 11.625,6.805 11.625,7.800 C11.625,8.306 11.414,8.763 11.077,9.090 L11.079,9.091 Z"/>
</svg>