<svg
 xmlns="http://www.w3.org/2000/svg"
 xmlns:xlink="http://www.w3.org/1999/xlink"
 width="11px" height="24px" viewBox="0 0 11 24">
<path fill-rule="evenodd"
 d="M10.728,0.974 C10.728,2.255 10.728,4.552 10.728,4.552 C10.728,4.552 8.072,4.289 7.407,5.299 C7.043,5.852 7.259,7.469 7.227,8.631 C8.386,8.631 9.591,8.631 10.750,8.631 C10.452,9.989 10.239,10.909 10.020,12.084 C9.016,12.084 7.207,12.084 7.207,12.084 L7.207,23.200 C7.207,23.200 3.887,23.200 2.327,23.200 C2.328,19.773 2.326,15.775 2.327,12.128 C1.569,12.128 1.008,12.128 0.250,12.128 C0.250,10.847 0.250,9.912 0.250,8.631 C0.986,8.631 1.568,8.631 2.304,8.631 C2.409,6.073 2.449,3.540 3.728,2.250 C5.166,0.800 6.537,0.974 10.728,0.974 Z"/>
</svg>