<svg
 xmlns="http://www.w3.org/2000/svg"
 xmlns:xlink="http://www.w3.org/1999/xlink"
 width="24px" height="20px" viewBox="0 0 24 20">
<path fill-rule="evenodd"
 d="M19.700,5.457 L19.700,8.873 L18.300,8.873 L18.300,5.457 L14.800,5.457 L14.800,4.061 L18.300,4.061 L18.300,0.645 L19.700,0.645 L19.700,4.061 L23.200,4.061 L23.200,5.457 L19.700,5.457 ZM10.020,1.998 C11.262,2.686 11.990,3.802 11.990,5.262 C11.990,6.488 11.232,7.454 10.255,8.204 C9.302,8.936 9.121,9.243 9.121,9.864 C9.121,10.395 10.143,11.298 10.676,11.669 C12.237,12.753 12.698,13.760 12.698,15.439 C12.698,17.535 10.676,19.877 6.936,19.877 C3.655,19.877 0.800,18.307 0.800,16.211 C0.800,14.083 3.413,12.029 6.693,12.029 C7.051,12.029 7.378,12.015 7.717,12.015 C7.268,11.586 6.913,11.053 6.913,10.404 C6.913,10.020 7.038,9.633 7.213,9.304 C7.034,9.317 6.852,9.288 6.665,9.288 C3.970,9.288 2.165,7.340 2.165,5.007 C2.165,2.725 4.658,0.623 7.307,0.623 C8.784,0.623 13.215,0.623 13.215,0.623 L11.893,1.998 L10.020,1.998 ZM7.318,12.573 C5.050,12.549 3.019,13.931 3.019,15.590 C3.019,17.284 4.657,18.522 6.924,18.522 C10.112,18.522 11.223,17.370 11.223,15.677 C11.223,15.473 11.197,15.273 11.151,15.078 C10.901,14.120 10.019,13.645 8.788,12.805 C8.340,12.662 7.847,12.579 7.318,12.573 ZM9.866,5.288 C9.602,3.325 8.090,1.750 6.568,1.705 C5.046,1.661 4.026,3.163 4.289,5.126 C4.552,7.089 5.998,8.718 7.520,8.762 C9.041,8.807 10.128,7.252 9.866,5.288 Z"/>
</svg>