<svg
 xmlns="http://www.w3.org/2000/svg"
 xmlns:xlink="http://www.w3.org/1999/xlink"
 width="30px" height="28px" viewBox="0 0 30 28">
<path fill-rule="evenodd"  fill="currentColor"
 d="M28.440,22.640 L21.240,22.640 L19.320,22.640 L19.320,25.040 L21.240,26.960 L21.240,27.440 L8.760,27.440 L8.760,26.960 L10.680,25.040 L10.680,22.640 L8.760,22.640 L1.560,22.640 C0.765,22.640 0.120,21.995 0.120,21.199 L0.120,2.000 C0.120,1.204 0.765,0.560 1.560,0.560 L28.440,0.560 C29.235,0.560 29.880,1.204 29.880,2.000 L29.880,21.199 C29.880,21.995 29.235,22.640 28.440,22.640 ZM27.960,2.480 L2.040,2.480 L2.040,18.800 L27.960,18.800 L27.960,2.480 Z"/>
</svg>