<svg
 xmlns="http://www.w3.org/2000/svg"
 xmlns:xlink="http://www.w3.org/1999/xlink"
 width="24px" height="22px" viewBox="0 0 24 22">
<path fill-rule="evenodd"
 d="M18.212,21.921 L18.212,14.156 C18.212,12.564 17.751,10.970 15.877,10.970 C14.002,10.970 13.218,12.564 13.218,14.195 L13.218,21.921 L8.216,21.921 L8.216,7.704 L13.218,7.704 L13.218,9.618 C14.534,7.946 15.678,7.256 17.751,7.256 C19.827,7.256 23.200,8.224 23.200,13.839 L23.200,21.921 L18.212,21.921 ZM3.594,5.596 C2.050,5.596 0.800,4.474 0.800,3.089 C0.800,1.703 2.050,0.579 3.594,0.579 C5.136,0.579 6.386,1.703 6.386,3.089 C6.386,4.474 5.136,5.596 3.594,5.596 ZM6.089,21.921 L1.079,21.921 L1.079,7.704 L6.089,7.704 L6.089,21.921 Z"/>
</svg>