<svg
 xmlns="http://www.w3.org/2000/svg"
 xmlns:xlink="http://www.w3.org/1999/xlink"
 width="24px" height="20px" viewBox="0 0 24 20">
<path fill-rule="evenodd"
 d="M16.036,0.937 C17.816,0.906 18.763,1.554 19.668,2.379 C20.436,2.313 21.435,1.884 22.023,1.586 C22.213,1.481 22.404,1.377 22.594,1.273 C22.259,2.180 21.803,2.891 21.103,3.430 C20.948,3.550 20.794,3.711 20.599,3.787 C20.599,3.791 20.599,3.795 20.599,3.799 C21.596,3.788 22.419,3.338 23.200,3.094 C23.200,3.098 23.200,3.102 23.200,3.106 C22.790,3.758 22.234,4.420 21.642,4.894 C21.402,5.084 21.163,5.274 20.924,5.464 C20.937,6.520 20.908,7.528 20.711,8.415 C19.563,13.573 16.522,17.075 11.708,18.575 C9.980,19.114 7.186,19.335 5.206,18.844 C4.224,18.600 3.337,18.325 2.504,17.961 C2.042,17.758 1.613,17.539 1.204,17.290 C1.069,17.208 0.934,17.126 0.800,17.044 C1.247,17.057 1.769,17.181 2.269,17.100 C2.720,17.027 3.164,17.046 3.580,16.955 C4.620,16.727 5.543,16.425 6.338,15.960 C6.724,15.735 7.309,15.469 7.583,15.144 C7.066,15.153 6.598,15.033 6.215,14.898 C4.728,14.373 3.863,13.408 3.300,11.958 C3.751,12.007 5.048,12.125 5.352,11.869 C4.784,11.838 4.239,11.509 3.849,11.265 C2.654,10.517 1.678,9.262 1.686,7.331 C1.843,7.405 2.000,7.480 2.156,7.554 C2.457,7.681 2.762,7.749 3.121,7.823 C3.272,7.854 3.575,7.943 3.749,7.878 C3.741,7.878 3.734,7.878 3.726,7.878 C3.495,7.609 3.118,7.430 2.885,7.141 C2.118,6.187 1.399,4.719 1.854,2.971 C1.969,2.528 2.152,2.137 2.347,1.776 C2.355,1.779 2.362,1.783 2.369,1.787 C2.459,1.974 2.658,2.111 2.784,2.267 C3.176,2.753 3.660,3.190 4.152,3.575 C5.830,4.888 7.342,5.694 9.769,6.291 C10.385,6.443 11.096,6.558 11.832,6.560 C11.625,5.958 11.692,4.985 11.854,4.402 C12.263,2.938 13.152,1.883 14.455,1.317 C14.767,1.182 15.113,1.084 15.475,1.004 C15.662,0.982 15.849,0.959 16.036,0.937 Z"/>
</svg>