<svg
 xmlns="http://www.w3.org/2000/svg"
 xmlns:xlink="http://www.w3.org/1999/xlink"
 width="36px" height="21px" viewBox="0 0 36 21">
<path fill-rule="evenodd" fill="currentColor"
 d="M35.549,10.567 C35.548,10.583 35.546,10.597 35.546,10.611 C35.545,10.619 35.544,10.626 35.543,10.634 C35.543,10.644 35.541,10.656 35.539,10.666 C35.538,10.678 35.537,10.691 35.534,10.703 C35.534,10.705 35.534,10.706 35.534,10.708 C35.490,10.987 35.362,11.247 35.166,11.448 C34.797,11.897 34.393,12.317 33.987,12.729 C31.794,14.956 29.277,16.942 26.522,18.383 C24.761,19.304 22.880,20.046 20.928,20.404 C18.782,20.796 16.634,20.776 14.500,20.312 C10.806,19.509 7.461,17.514 4.535,15.129 C3.176,14.022 1.841,12.810 0.718,11.448 C0.226,10.853 0.226,10.147 0.718,9.551 C1.087,9.104 1.490,8.683 1.896,8.271 C4.089,6.044 6.606,4.057 9.362,2.617 C11.122,1.696 13.004,0.953 14.955,0.596 C17.101,0.204 19.249,0.224 21.384,0.687 C25.077,1.491 28.423,3.486 31.348,5.871 C32.706,6.978 34.042,8.190 35.165,9.552 C35.362,9.753 35.490,10.014 35.533,10.292 C35.533,10.293 35.533,10.295 35.534,10.297 C35.536,10.309 35.537,10.321 35.539,10.334 C35.540,10.345 35.542,10.355 35.543,10.366 C35.543,10.374 35.544,10.381 35.545,10.389 C35.546,10.404 35.547,10.418 35.548,10.433 C35.549,10.455 35.550,10.477 35.550,10.500 C35.550,10.523 35.550,10.545 35.549,10.567 ZM17.950,3.625 C14.305,3.625 11.350,6.580 11.350,10.225 C11.350,13.870 14.305,16.825 17.950,16.825 C21.595,16.825 24.550,13.870 24.550,10.225 C24.550,6.580 21.595,3.625 17.950,3.625 ZM17.950,13.525 C16.127,13.525 14.650,12.047 14.650,10.225 C14.650,8.402 16.127,6.925 17.950,6.925 C19.772,6.925 21.250,8.402 21.250,10.225 C21.250,12.047 19.772,13.525 17.950,13.525 Z"/>
</svg>