<svg
 xmlns="http://www.w3.org/2000/svg"
 xmlns:xlink="http://www.w3.org/1999/xlink"
 width="32px" height="29px" viewBox="0 0 32 29">
<path fill-rule="evenodd"  fill="currentColor"
 d="M29.963,8.937 C26.358,5.420 21.434,3.250 16.000,3.250 C10.566,3.250 5.642,5.420 2.037,8.937 L0.189,6.555 C4.311,2.650 9.874,0.250 16.000,0.250 C22.127,0.250 27.689,2.650 31.811,6.555 L29.963,8.937 ZM16.000,7.750 C20.396,7.750 24.361,9.583 27.182,12.522 L25.312,14.931 C23.023,12.371 19.705,10.750 16.000,10.750 C12.295,10.750 8.977,12.371 6.688,14.931 L4.818,12.522 C7.639,9.583 11.604,7.750 16.000,7.750 ZM16.000,15.250 C18.672,15.250 21.031,16.564 22.484,18.576 L20.833,20.705 C19.741,19.219 17.986,18.250 16.000,18.250 C14.014,18.250 12.259,19.219 11.167,20.705 L9.516,18.576 C10.969,16.564 13.328,15.250 16.000,15.250 ZM16.000,22.750 C17.657,22.750 19.000,24.093 19.000,25.750 C19.000,27.407 17.657,28.750 16.000,28.750 C14.343,28.750 13.000,27.407 13.000,25.750 C13.000,24.093 14.343,22.750 16.000,22.750 Z"/>
</svg>