<svg xmlns="http://www.w3.org/2000/svg"><symbol id="behance" viewBox="0 0 26 17"><path fill-rule="evenodd" d="M17.086 2.062h6.218V3.65h-6.218V2.062zm8.577 9.406h-8.096c.087 1.964 1.041 2.688 2.755 2.688 1.238 0 2.238-.396 2.433-1.095h2.468c-.867 2.662-2.468 3.428-5.008 3.428-3.538 0-5.73-2.443-5.73-5.932 0-3.382 2.323-5.956 5.73-5.956 3.819 0 5.664 3.399 5.448 6.867zm-8.096-2.306h5.014c-.282-1.57-.956-2.226-2.454-2.226-1.953 0-2.517 1.355-2.56 2.226zm-3.891 2.505c0 3.164-2.671 4.518-5.471 4.518H.696V.51H7.99c2.951 0 4.948 1.058 4.948 3.959 0 1.529-.76 2.596-2.107 3.252 1.89.545 2.845 2.006 2.845 3.946zm-6.674-8.52h-3.19v3.642h3.45c1.193 0 2.084-.545 2.084-1.852 0-1.484-1.129-1.79-2.344-1.79zm.52 5.976h-3.71v4.276h3.645c1.346 0 2.517-.435 2.517-2.05 0-1.592-.997-2.226-2.452-2.226z"/></symbol><symbol id="brightness" viewBox="0 0 32 32"><path fill-rule="evenodd" fill="currentColor" d="M30.5 17.5h-4a1.5 1.5 0 0 1 0-3h4a1.5 1.5 0 0 1 0 3zM28.061 6.061l-2.723 2.722-.777.777-.005-.004A1.476 1.476 0 0 1 23.5 10 1.5 1.5 0 0 1 22 8.5c0-.415.171-.787.444-1.057l-.005-.004.778-.778 2.722-2.722A1.499 1.499 0 0 1 28.5 5c0 .414-.168.789-.439 1.061zM16 22a5.995 5.995 0 0 1-5.218-3.045l-.591-1.479A5.982 5.982 0 0 1 10 16a6 6 0 1 1 6 6zm0-9a3 3 0 1 0 0 6 3 3 0 0 0 0-6zm0-6a1.5 1.5 0 0 1-1.5-1.5V1.499a1.5 1.5 0 0 1 3 0V5.5A1.5 1.5 0 0 1 16 7zM9.561 24.56l-.778.778-2.722 2.722a1.5 1.5 0 0 1-2.122-2.121l2.723-2.722.777-.778a1.5 1.5 0 0 1 2.122 2.121zM8.5 10c-.415 0-.787-.171-1.056-.444l-.005.004-.777-.777-2.723-2.722A1.499 1.499 0 0 1 5 3.5c.414 0 .789.168 1.061.439l2.722 2.722.778.778-.005.004c.273.27.444.642.444 1.057A1.5 1.5 0 0 1 8.5 10zm-3 4.5a1.5 1.5 0 0 1 0 3h-4a1.5 1.5 0 0 1 0-3h4zM16 25a1.5 1.5 0 0 1 1.5 1.5v4a1.5 1.5 0 0 1-3 0v-4A1.5 1.5 0 0 1 16 25zm7.5-3c.414 0 .789.167 1.061.439l.777.778 2.723 2.722a1.5 1.5 0 0 1-2.122 2.121l-2.722-2.722-.778-.778A1.5 1.5 0 0 1 23.5 22z"/></symbol><symbol id="camera" viewBox="0 0 32 26"><path fill-rule="evenodd" fill="currentColor" d="M30.5 26h-29A1.5 1.5 0 0 1 0 24.499V4.5A1.5 1.5 0 0 1 1.5 3h6.406L10.309.597C10.582.237 11.012 0 11.5 0h9c.421 0 .801.174 1.073.454l.002-.001L24.121 3H30.5A1.5 1.5 0 0 1 32 4.5v19.999A1.5 1.5 0 0 1 30.5 26zM16 5a9 9 0 1 0 0 18 9 9 0 0 0 0-18zm0 15a6 6 0 1 1 .001-12.001A6 6 0 0 1 16 20z"/></symbol><symbol id="code" viewBox="0 0 40 30"><path fill-rule="evenodd" fill="currentColor" d="M38.678 16.289l.001.002-7.2 7.2-.001-.002a1.8 1.8 0 0 1-3.053-1.289c0-.488.196-.929.511-1.252l-.002-.002 5.936-5.937-5.918-5.918.002-.001a1.8 1.8 0 1 1 2.542-2.542l.002-.003 7.095 7.096a1.786 1.786 0 0 1 .085 2.648zM16.9 28.21a1.8 1.8 0 1 1-3.374-1.256l9.587-25.165a1.8 1.8 0 1 1 3.373 1.257L16.9 28.21zM11.079 9.091l-5.918 5.918 5.937 5.937-.002.002A1.8 1.8 0 0 1 9.806 24c-.487 0-.928-.196-1.252-.511l-.002.002-7.2-7.2.002-.002a1.786 1.786 0 0 1 .084-2.648l7.095-7.096.002.003a1.8 1.8 0 1 1 2.542 2.542l.002.001z"/></symbol><symbol id="fb" viewBox="0 0 11 24"><path fill-rule="evenodd" d="M10.728.974v3.578s-2.656-.263-3.321.747c-.364.553-.148 2.17-.18 3.332h3.523c-.298 1.358-.511 2.278-.73 3.453H7.207V23.2h-4.88V12.128H.25V8.631h2.054c.105-2.558.145-5.091 1.424-6.381C5.166.8 6.537.974 10.728.974z"/></symbol><symbol id="gp" viewBox="0 0 24 20"><path fill-rule="evenodd" d="M19.7 5.457v3.416h-1.4V5.457h-3.5V4.061h3.5V.645h1.4v3.416h3.5v1.396h-3.5zm-9.68-3.459c1.242.688 1.97 1.804 1.97 3.264 0 1.226-.758 2.192-1.735 2.942-.953.732-1.134 1.039-1.134 1.66 0 .531 1.022 1.434 1.555 1.805 1.561 1.084 2.022 2.091 2.022 3.77 0 2.096-2.022 4.438-5.762 4.438-3.281 0-6.136-1.57-6.136-3.666 0-2.128 2.613-4.182 5.893-4.182.358 0 .685-.014 1.024-.014-.449-.429-.804-.962-.804-1.611 0-.384.125-.771.3-1.1-.179.013-.361-.016-.548-.016-2.695 0-4.5-1.948-4.5-4.281 0-2.282 2.493-4.384 5.142-4.384h5.908l-1.322 1.375H10.02zM7.318 12.573c-2.268-.024-4.299 1.358-4.299 3.017 0 1.694 1.638 2.932 3.905 2.932 3.188 0 4.299-1.152 4.299-2.845 0-.204-.026-.404-.072-.599-.25-.958-1.132-1.433-2.363-2.273a5.013 5.013 0 0 0-1.47-.232zm2.548-7.285C9.602 3.325 8.09 1.75 6.568 1.705c-1.522-.044-2.542 1.458-2.279 3.421.263 1.963 1.709 3.592 3.231 3.636 1.521.045 2.608-1.51 2.346-3.474z"/></symbol><symbol id="iMac" viewBox="0 0 30 28"><path fill-rule="evenodd" fill="currentColor" d="M28.44 22.64H19.32v2.4l1.92 1.92v.48H8.76v-.48l1.92-1.92v-2.4H1.56a1.44 1.44 0 0 1-1.44-1.441V2C.12 1.204.765.56 1.56.56h26.88c.795 0 1.44.644 1.44 1.44v19.199a1.44 1.44 0 0 1-1.44 1.441zm-.48-20.16H2.04V18.8h25.92V2.48z"/></symbol><symbol id="lin" viewBox="0 0 24 22"><path fill-rule="evenodd" d="M18.212 21.921v-7.765c0-1.592-.461-3.186-2.335-3.186-1.875 0-2.659 1.594-2.659 3.225v7.726H8.216V7.704h5.002v1.914c1.316-1.672 2.46-2.362 4.533-2.362 2.076 0 5.449.968 5.449 6.583v8.082h-4.988zM3.594 5.596C2.05 5.596.8 4.474.8 3.089.8 1.703 2.05.579 3.594.579c1.542 0 2.792 1.124 2.792 2.51 0 1.385-1.25 2.507-2.792 2.507zm2.495 16.325h-5.01V7.704h5.01v14.217z"/></symbol><symbol id="tw" viewBox="0 0 24 20"><path fill-rule="evenodd" d="M16.036.937c1.78-.031 2.727.617 3.632 1.442.768-.066 1.767-.495 2.355-.793l.571-.313c-.335.907-.791 1.618-1.491 2.157-.155.12-.309.281-.504.357v.012c.997-.011 1.82-.461 2.601-.705v.012c-.41.652-.966 1.314-1.558 1.788l-.718.57c.013 1.056-.016 2.064-.213 2.951-1.148 5.158-4.189 8.66-9.003 10.16-1.728.539-4.522.76-6.502.269-.982-.244-1.869-.519-2.702-.883a10.955 10.955 0 0 1-1.3-.671L.8 17.044c.447.013.969.137 1.469.056.451-.073.895-.054 1.311-.145 1.04-.228 1.963-.53 2.758-.995.386-.225.971-.491 1.245-.816a3.91 3.91 0 0 1-1.368-.246c-1.487-.525-2.352-1.49-2.915-2.94.451.049 1.748.167 2.052-.089-.568-.031-1.113-.36-1.503-.604-1.195-.748-2.171-2.003-2.163-3.934l.47.223c.301.127.606.195.965.269.151.031.454.12.628.055h-.023c-.231-.269-.608-.448-.841-.737-.767-.954-1.486-2.422-1.031-4.17a5.31 5.31 0 0 1 .493-1.195.15.15 0 0 1 .022.011c.09.187.289.324.415.48.392.486.876.923 1.368 1.308 1.678 1.313 3.19 2.119 5.617 2.716a8.803 8.803 0 0 0 2.063.269c-.207-.602-.14-1.575.022-2.158.409-1.464 1.298-2.519 2.601-3.085a5.652 5.652 0 0 1 1.02-.313l.561-.067z"/></symbol><symbol id="view" viewBox="0 0 36 21"><path fill-rule="evenodd" fill="currentColor" d="M35.549 10.567l-.003.044-.003.023c0 .01-.002.022-.004.032-.001.012-.002.025-.005.037v.005a1.365 1.365 0 0 1-.368.74c-.369.449-.773.869-1.179 1.281-2.193 2.227-4.71 4.213-7.465 5.654-1.761.921-3.642 1.663-5.594 2.021a16.252 16.252 0 0 1-6.428-.092c-3.694-.803-7.039-2.798-9.965-5.183-1.359-1.107-2.694-2.319-3.817-3.681-.492-.595-.492-1.301 0-1.897.369-.447.772-.868 1.178-1.28 2.193-2.227 4.71-4.214 7.466-5.654 1.76-.921 3.642-1.664 5.593-2.021a16.276 16.276 0 0 1 6.429.091c3.693.804 7.039 2.799 9.964 5.184 1.358 1.107 2.694 2.319 3.817 3.681a1.355 1.355 0 0 1 .369.745l.005.037.004.032.002.023.003.044.002.067-.001.067zM17.95 3.625a6.6 6.6 0 1 0 0 13.2 6.6 6.6 0 0 0 0-13.2zm0 9.9a3.3 3.3 0 1 1 0-6.6 3.3 3.3 0 0 1 0 6.6z"/></symbol><symbol id="wi-fi" viewBox="0 0 32 29"><path fill-rule="evenodd" fill="currentColor" d="M29.963 8.937A19.93 19.93 0 0 0 16 3.25 19.93 19.93 0 0 0 2.037 8.937L.189 6.555A22.916 22.916 0 0 1 16 .25c6.127 0 11.689 2.4 15.811 6.305l-1.848 2.382zM16 7.75c4.396 0 8.361 1.833 11.182 4.772l-1.87 2.409c-2.289-2.56-5.607-4.181-9.312-4.181-3.705 0-7.023 1.621-9.312 4.181l-1.87-2.409A15.453 15.453 0 0 1 16 7.75zm0 7.5a7.982 7.982 0 0 1 6.484 3.326l-1.651 2.129a5.985 5.985 0 0 0-9.666 0l-1.651-2.129A7.982 7.982 0 0 1 16 15.25zm0 7.5a3 3 0 1 1 0 6 3 3 0 0 1 0-6z"/></symbol></svg>